<?xml version="1.0" encoding="iso-8859-1"?>
<!-- Generator: Adobe Illustrator 18.0.0, SVG Export Plug-In . SVG Version: 6.00 Build 0)  -->
<!DOCTYPE svg PUBLIC "-//W3C//DTD SVG 1.1//EN" "http://www.w3.org/Graphics/SVG/1.1/DTD/svg11.dtd">
<svg version="1.1" id="Capa_1" xmlns="http://www.w3.org/2000/svg" xmlns:xlink="http://www.w3.org/1999/xlink" x="0px" y="0px"
	 viewBox="0 0 470.36 470.36" style="enable-background:new 0 0 470.36 470.36;" xml:space="preserve">
<path d="M461.81,51.308l-36.114-36.114c-1.219-1.219-2.872-1.904-4.596-1.904s-3.377,0.685-4.596,1.904l-4.908,4.908L393.397,1.904
	c-2.538-2.538-6.654-2.538-9.192,0c-2.539,2.539-2.539,6.654,0,9.192l18.199,18.199l-8.294,8.294L375.91,19.39
	c-2.538-2.538-6.654-2.538-9.192,0c-2.539,2.539-2.539,6.654,0,9.192l18.199,18.199l-8.294,8.294l-18.199-18.199
	c-2.538-2.538-6.654-2.538-9.192,0c-2.539,2.539-2.539,6.654,0,9.192l18.199,18.199l-15.137,15.137l-6.034-6.034
	c-2.538-2.538-6.654-2.538-9.192,0c-2.539,2.539-2.539,6.654,0,9.192l6.034,6.034l-7.487,7.487l-6.034-6.034
	c-2.538-2.538-6.654-2.538-9.192,0c-2.539,2.539-2.539,6.654,0,9.192l6.034,6.034l-7.486,7.486l-6.034-6.034
	c-2.538-2.538-6.654-2.538-9.192,0c-2.539,2.539-2.539,6.654,0,9.192l6.034,6.034l-7.487,7.487l-6.034-6.034
	c-2.538-2.538-6.654-2.538-9.192,0c-2.539,2.539-2.539,6.654,0,9.192l6.034,6.034l-7.486,7.486l-6.034-6.034
	c-2.538-2.538-6.654-2.538-9.192,0c-2.539,2.539-2.539,6.654,0,9.192l6.034,6.034l-7.486,7.486l-6.034-6.034
	c-2.538-2.538-6.654-2.538-9.192,0c-2.539,2.539-2.539,6.654,0,9.192l6.034,6.034l-7.487,7.487l-6.034-6.034
	c-2.538-2.538-6.654-2.538-9.192,0c-2.539,2.539-2.539,6.654,0,9.192l6.034,6.034l-7.486,7.486l-6.034-6.034
	c-2.538-2.538-6.654-2.538-9.192,0c-2.539,2.539-2.539,6.654,0,9.192l6.034,6.034l-7.487,7.487l-6.034-6.034
	c-2.538-2.538-6.654-2.538-9.192,0c-2.539,2.539-2.539,6.654,0,9.192l6.034,6.034l-25.961,25.961
	c-15.14,15.14-37.792,20.657-57.708,14.055c-36.859-12.217-72.715-5.659-95.916,17.542C-6.827,316.498,0.677,384.06,46.811,430.194
	c26.417,26.417,59.853,40.166,90.544,40.166c22.906,0,44.288-7.665,60.063-23.439c23.201-23.201,29.759-59.058,17.542-95.916
	c-6.601-19.917-1.084-42.569,14.055-57.708L461.81,60.501C464.349,57.962,464.349,53.847,461.81,51.308z M221.22,228.863
	l26.921,26.921l-15.796,15.796l-26.921-26.921L221.22,228.863z M230.413,219.671l15.796-15.796l26.921,26.921l-15.796,15.796
	L230.413,219.671z M255.401,194.682l15.796-15.796l26.921,26.921l-15.796,15.796L255.401,194.682z M280.39,169.694l15.796-15.796
	l26.922,26.922l-15.796,15.796L280.39,169.694z M305.378,144.705l15.796-15.796l26.922,26.922L332.3,171.626L305.378,144.705z
	 M330.367,119.716l15.796-15.796l26.922,26.922l-15.796,15.796L330.367,119.716z M355.356,94.728l1.529-1.529
	c0.002-0.002,0.003-0.003,0.005-0.005s0.003-0.003,0.005-0.005l10.605-10.605l26.922,26.922l-12.143,12.143L355.356,94.728z
	 M171.243,278.841l26.37,26.37l-15.796,15.796l-26.37-26.37L171.243,278.841z M188.225,437.728
	c-30.645,30.645-86.732,24.842-127.512-12.243l22.067-22.067l11.3,11.3c1.219,1.219,2.873,1.904,4.596,1.904
	c1.724,0,3.377-0.685,4.596-1.904l14.938-14.939c2.539-2.539,2.539-6.654,0-9.192l-31.792-31.792c-2.538-2.538-6.654-2.538-9.192,0
	l-14.939,14.939c-1.219,1.219-1.904,2.872-1.904,4.596s0.685,3.377,1.904,4.596l11.3,11.3L51.52,416.292
	c-37.085-40.78-42.889-96.868-12.244-127.513c13.003-13.003,30.928-19.758,50.867-19.758c10.192,0,20.912,1.766,31.767,5.363
	c10.802,3.581,22.033,4.365,32.829,2.574l-13.082,13.082c-2.539,2.539-2.539,6.654,0,9.192l35.563,35.563
	c1.269,1.269,2.933,1.904,4.596,1.904s3.327-0.635,4.596-1.904l13.876-13.876c-2.09,11.206-1.399,22.923,2.331,34.175
	C213.257,387.186,207.875,418.077,188.225,437.728z M76.076,378.329l5.747-5.747l22.6,22.6l-5.746,5.747L76.076,378.329z
	 M208.908,298.121l-30.023-30.024c5.018-2.988,9.734-6.631,14.017-10.915l3.331-3.331l26.921,26.921l-3.331,3.331
	C215.539,288.387,211.895,293.103,208.908,298.121z M403.613,100.313l-26.922-26.922L421.1,28.983l26.921,26.922L403.613,100.313z"
	/>
<g>
</g>
<g>
</g>
<g>
</g>
<g>
</g>
<g>
</g>
<g>
</g>
<g>
</g>
<g>
</g>
<g>
</g>
<g>
</g>
<g>
</g>
<g>
</g>
<g>
</g>
<g>
</g>
<g>
</g>
</svg>
